PathFileType	4	(X/Y/Z)	C:/Users/beibeiliu/ov580/test_trc\sequence.3_training_dense_left.trc
DataRate	CameraRate	NumFrames	NumMarkers	Units	OrigDataRate	OrigDataStartFrame	OrigNumFrames
120	120	23	19	mm	120	280	319
Frame#	Time	ThumbCMC			ThumbMCP			ThumbIP			ThumbTip			IndexMCP			IndexPIP			IndexTip			MiddleMCP			MiddlePIP			MiddleTip			RingMCP			RingPIP			RingTip			PinkyMCP			PinkyPIP			PinkyTip			BackHand1			BackHand2			BackHand3	
		X0	Y0	Z0	X1	Y1	Z1	X2	Y2	Z2	X3	Y3	Z3	X4	Y4	Z4	X5	Y5	Z5	X6	Y6	Z6	X7	Y7	Z7	X8	Y8	Z8	X9	Y9	Z9	X10	Y10	Z10	X11	Y11	Z11	X12	Y12	Z12	X13	Y13	Z13	X14	Y14	Z14	X15	Y15	Z15	X16	Y16	Z16	X17	Y17	Z17	X18	Y18	Z18	
279	2.325	-133.947	-26.4339	5.16629	-119.195	-32.8209	-11.8049	-100.181	-31.9981	-30.1543	-87.6219	-32.687	-39.7809	-130.579	-43.8704	-65.3175	-122.631	-50.4248	-81.4506	-118.874	-54.7281	-104.949	-155.716	-46.2127	-73.5724	-154.244	-51.1591	-93.3788	-155.177	-52.3711	-116.741	-176.982	-47.0742	-65.6309	-178.386	-51.0215	-86.4437	-176.211	-52.7805	-105.641	-195.749	-50.0977	-50.765	-198.619	-52.141	-64.4289	-205.768	-51.551	-81.9355	-175.258	-28.0896	-28.7339	-182.537	-14.4765	-5.97133	-154.403	-15.7668	-14.4943	
280	2.33333	-135.011	-26.5543	6.42724	-117.447	-31.7435	-12.2522	-106.897	-33.63	-31.8992	-90.0246	-33.0546	-38.297	-133.178	-43.2868	-62.8543	-129.664	-50.0016	-81.574	-121.76	-54.0376	-100.817	-153.638	-45.4183	-71.7405	-155.178	-50.9948	-89.4335	-152.693	-52.2887	-116.552	-177.406	-46.4419	-62.3164	-176.265	-51.2332	-87.2737	-180.054	-52.556	-106.439	-196.034	-49.431	-50.572	-200.47	-52.9873	-67.3396	-205.497	-51.642	-83.6864	-178.886	-27.2336	-27.4354	-184.959	-14.5399	-2.30437	-157.643	-17.0217	-13.8315	
281	2.34167	-138.955	-27.8598	3.35627	-117.253	-30.5121	-13.9348	-106.721	-33.5747	-29.1719	-94.132	-33.335	-42.4941	-135.357	-43.58	-62.9466	-126.963	-49.7361	-84.2162	-121.858	-54.2557	-103.934	-156.142	-44.9454	-74.2983	-155.95	-51.4012	-94.4424	-158.588	-53.1216	-115.745	-176.918	-47.3112	-66.8426	-180.37	-51.3153	-84.5919	-176.817	-51.869	-107.276	-199.161	-49.7363	-48.3279	-198.989	-52.824	-70.0313	-207.605	-52.0497	-87.1269	-179.371	-28.8648	-27.7255	-184.486	-15.8087	-3.56494	-158.199	-18.2957	-14.9863	
282	2.35	-135.96	-25.4516	1.25783	-121.1	-30.9327	-11.4358	-105.526	-30.9819	-27.9034	-90.9462	-30.9513	-41.9887	-133.458	-42.5291	-66.2167	-127.369	-49.4376	-81.9531	-122.962	-53.8633	-106.206	-160.587	-45.6214	-74.5965	-155.325	-49.3647	-93.3214	-158.337	-51.5708	-114.447	-176.683	-46.2757	-67.4282	-177.827	-50.4255	-86.5784	-182.789	-51.1062	-108.349	-196.782	-48.8888	-53.2398	-203.11	-52.0791	-70.0876	-206.951	-50.8518	-86.7342	-179.764	-25.5677	-28.892	-187.582	-16.6988	-4.27942	-155.83	-15.357	-16.5051	
283	2.35833	-140.186	-24.8903	2.69396	-120.693	-28.6981	-15.7793	-107.906	-30.3243	-31.3356	-92.8642	-29.3105	-40.7929	-135.421	-40.1932	-63.1792	-130.171	-47.2179	-80.9774	-125.507	-51.377	-105.515	-158.596	-43.4764	-74.2673	-159.344	-48.7803	-91.9743	-160.347	-49.2546	-115.003	-181.497	-45.1198	-65.7816	-182.406	-49.2332	-86.5028	-182.512	-49.9554	-106.705	-199.547	-48.1434	-52.717	-205.03	-51.2388	-67.1184	-207.882	-47.2124	-84.0312	-185.324	-24.4689	-27.1153	-182.78	-13.9745	-3.67101	-156.381	-14.2746	-17.1112	
284	2.36667	-142.416	-25.1107	3.62134	-122.3	-28.1413	-11.9386	-108.176	-28.2223	-29.931	-96.8834	-29.0316	-45.2714	-139.212	-38.2623	-62.1343	-132.893	-46.2994	-87.3981	-124.908	-49.3114	-106.334	-160.958	-41.229	-71.4226	-159.326	-46.6064	-90.6297	-159.062	-47.752	-115.729	-180.127	-44.001	-66.2272	-182.057	-46.7978	-84.7901	-181.455	-47.3003	-105.454	-197.759	-45.9845	-54.6143	-203.026	-49.019	-66.3167	-211.983	-47.4688	-87.8264	-182.099	-24.891	-28.2641	-189.871	-11.726	-2.43446	-156.954	-13.9376	-15.2024	
285	2.375	-143.333	-24.2488	2.22234	-121.201	-25.4387	-12.2416	-110.892	-28.5072	-30.0813	-94.855	-26.5775	-39.7455	-139.6	-38.9408	-66.4761	-128.85	-44.7345	-86.101	-125.486	-47.8038	-104.669	-163.645	-41.1265	-74.9496	-159.572	-46.1145	-94.9078	-160.286	-46.6203	-117.188	-182.724	-42.5122	-63.7417	-181.459	-46.1187	-85.5842	-186.26	-46.7011	-106.482	-198.766	-45.1633	-53.5989	-206.93	-48.9914	-68.9424	-210.781	-47.7179	-85.101	-184.618	-21.7844	-26.7869	-188.626	-13.5878	-6.29034	-160.442	-12.7907	-13.3397	
286	2.38333	-144.28	-24.2577	0.52005	-124.202	-26.9981	-10.5168	-109.953	-26.8891	-31.7013	-98.01	-26.259	-43.6713	-138.759	-38.1182	-66.7198	-132.119	-43.9843	-84.2335	-129.347	-47.7587	-103.097	-164.76	-38.8972	-70.4579	-162.911	-44.8426	-91.292	-164.093	-46.748	-118.539	-180.216	-40.9021	-68.0087	-185.206	-45.237	-86.8927	-186.824	-46.3641	-108.358	-202.928	-44.599	-51.6243	-204.682	-47.9015	-67.2134	-210.987	-46.4959	-86.728	-185.953	-24.0526	-28.7368	-185.478	-11.3614	-4.4897	-159.603	-12.6161	-12.4838	
287	2.39167	-143.92	-22.9247	4.18101	-126.234	-26.4456	-14.8301	-109.158	-25.6152	-31.4696	-96.3146	-25.6494	-44.2762	-138.485	-37.2374	-66.2411	-135.329	-42.7468	-83.1143	-126.867	-47.7355	-107.085	-164.908	-38.0982	-70.4892	-161.818	-43.677	-95.7757	-163.674	-46.2221	-117.454	-182.767	-41.7095	-65.189	-183.474	-44.3937	-84.1892	-185.533	-45.107	-106.638	-202.802	-44.5572	-50.4365	-205.817	-48.6493	-68.1871	-208.917	-47.7837	-84.9606	-187.515	-21.971	-29.1527	-189.624	-9.99437	-1.50339	-160.259	-12.2036	-13.1982	
288	2.4	-144.919	-24.1932	3.69846	-122.321	-25.9693	-10.6723	-109.732	-26.3696	-31.438	-99.156	-27.3879	-40.3752	-142.421	-36.8049	-64.5781	-134.062	-42.0447	-82.4206	-128.634	-46.4315	-103.8	-166.689	-39.2292	-73.605	-165.248	-44.2534	-93.1557	-163.707	-44.7323	-119.436	-187.133	-40.983	-64.0957	-182.534	-45.1509	-83.5281	-183.878	-46.2092	-103.627	-203.453	-43.9855	-50.6804	-207.014	-48.4609	-69.8314	-211.258	-45.1198	-87.5179	-188.477	-20.9099	-24.5162	-188.58	-12.2282	-1.46917	-162.538	-13.828	-16.434	
289	2.40833	-143.713	-22.5606	5.73377	-123.2	-25.9425	-9.77003	-109.271	-26.2839	-31.2969	-95.7611	-25.57	-37.7869	-140.23	-36.8319	-60.5876	-135.99	-44.2447	-84.9998	-130.948	-47.7961	-104.466	-165.437	-39.0587	-69.3697	-164.864	-43.2616	-90.3127	-165.141	-45.2932	-120.178	-182.792	-40.8881	-66.3603	-182.282	-44.4145	-85.2952	-188.325	-45.3021	-105.955	-202.711	-44.8105	-49.5879	-205.056	-46.7777	-64.9492	-210.987	-45.0623	-86.7443	-186.891	-23.7872	-26.8431	-189.346	-9.84438	-2.88115	-165.02	-11.7132	-14.3418	
290	2.41667	-142.038	-23.372	5.12654	-121.862	-25.6975	-12.9289	-108.043	-26.7202	-32.3778	-96.0288	-27.2545	-43.0879	-139.916	-37.6616	-60.3467	-135.265	-44.5614	-85.5466	-129.2	-47.8039	-102.25	-164.641	-40.7992	-73.8395	-164.531	-45.0241	-93.2946	-161.174	-45.9885	-117.573	-182.902	-42.7282	-66.4532	-184.454	-45.6852	-85.3353	-186.881	-46.3192	-106.196	-202.83	-44.8713	-48.0824	-209.591	-48.559	-68.4769	-213.865	-47.3203	-82.7365	-184.22	-21.0345	-23.3845	-188.951	-10.9505	-3.51924	-164.004	-15.5461	-16.9905	
291	2.425	-141.078	-22.4615	2.38529	-125.631	-28.449	-14.3892	-109.98	-28.6884	-31.6842	-97.4759	-29.3015	-38.1041	-136.551	-38.6363	-65.3903	-136.103	-44.7183	-85.1033	-130.461	-48.8899	-103.732	-162.899	-39.5794	-71.6094	-164.642	-45.0579	-90.964	-161.105	-47.41	-115.675	-185.563	-42.8912	-64.0367	-187.67	-47.5197	-82.2396	-187.197	-47.3737	-105.932	-205.664	-45.8261	-53.2787	-206.105	-49.6396	-66.0483	-213.594	-47.5009	-81.3151	-189.252	-24.851	-25.9929	-191.965	-11.8419	-3.02271	-162.465	-12.5836	-14.9837	
292	2.43333	-141.16	-23.0478	1.75913	-125.87	-28.4868	-13.7989	-110.729	-29.1839	-29.1786	-96.849	-28.8958	-41.9161	-142.093	-40.0478	-64.9097	-135.92	-45.7626	-81.8867	-130.314	-50.2892	-103.43	-167.108	-41.9498	-71.6292	-161.509	-45.7827	-94.5696	-162.229	-47.3697	-113.965	-183.881	-42.9678	-65.2892	-186.469	-47.045	-87.8244	-188.487	-49.2575	-102.769	-205.12	-45.688	-47.6692	-207.448	-49.0495	-64.6631	-210.363	-47.8863	-82.1071	-189.719	-23.9839	-23.902	-186.049	-14.2205	-4.35883	-162.724	-13.0823	-14.712	
293	2.44167	-143.933	-24.5836	5.83371	-124.028	-29.2998	-9.46661	-109.325	-30.5342	-33.0666	-97.9184	-31.2713	-38.3671	-140.554	-39.6228	-61.0385	-134.63	-45.997	-84.0413	-127.293	-49.0695	-101.406	-162.566	-40.9204	-74.7417	-163.808	-46.7535	-92.8624	-166.159	-49.0401	-116.032	-183.301	-42.7498	-62.0557	-183.638	-47.6036	-81.9628	-188.655	-48.8952	-102.561	-199.71	-45.9838	-49.9637	-203.869	-49.502	-68.1428	-209.401	-48.1727	-85.6421	-189.207	-24.9243	-27.8595	-187.949	-12.9736	-6.44507	-161.142	-15.7626	-15.9669	
294	2.45	-140.603	-24.7232	2.55857	-124.87	-28.7822	-13.8982	-111.731	-31.1169	-29.4978	-98.1456	-31.9823	-38.8371	-139.416	-39.4412	-61.1493	-135.718	-46.0861	-83.7953	-127.318	-50.82	-106.381	-166.241	-42.7002	-73.6129	-164.446	-46.4706	-91.5152	-163.46	-48.5401	-120.445	-185.552	-43.9402	-63.6697	-187.208	-47.8278	-86.1655	-189.102	-49.1041	-103.799	-204.732	-45.9376	-54.2055	-208.084	-50.3984	-69.5436	-212.698	-50.102	-88.4859	-187.192	-25.4424	-28.093	-191.716	-11.8796	-2.04605	-163.314	-14.78	-13.1094	
295	2.45833	-145.34	-26.0273	4.39761	-122.167	-29.2631	-12.9406	-112.68	-32.3105	-30.2186	-94.4417	-30.0665	-40.5806	-137.499	-40.932	-66.2596	-135.564	-47.7236	-85.5209	-128.117	-51.197	-103.906	-162.659	-41.8574	-70.8841	-164.648	-47.0609	-91.7679	-164.708	-49.8281	-119.43	-182.785	-44.2644	-64.2285	-187.618	-48.0456	-89.3579	-183.569	-49.3869	-106.334	-204.619	-47.0031	-51.6392	-206.936	-49.5941	-70.1908	-212.038	-48.8328	-88.3155	-184.558	-24.0057	-26.4232	-189.426	-14.4769	-6.17901	-162.94	-16.3888	-14.1444	
296	2.46667	-144.776	-25.9679	4.95626	-126.348	-31.348	-12.5316	-109.748	-30.9508	-34.04	-95.7647	-30.7658	-41.9157	-138.929	-41.4281	-65.8778	-133.403	-46.6018	-81.459	-129.392	-51.9285	-105.364	-161.652	-42.4212	-74.1082	-161.171	-47.3779	-94.494	-165.928	-50.2267	-116.784	-183.365	-43.5637	-64.559	-187.453	-47.66	-86.8177	-187.447	-49.4181	-105.274	-203.938	-46.4235	-54.9444	-204.676	-49.4337	-70.9622	-209.277	-48.0898	-84.2155	-187.515	-24.2687	-30.3503	-187.181	-14.9348	-3.85706	-162.825	-14.8729	-13.5154	
297	2.475	-142.125	-25.5599	0.454559	-127.886	-31.4428	-13.5494	-111.374	-31.7876	-30.9405	-97.4964	-32.1135	-42.9139	-137.772	-40.5324	-65.381	-132.038	-47.4183	-83.722	-129.821	-51.6414	-106.232	-167.14	-41.366	-72.5049	-161.929	-47.2043	-94.2375	-163.902	-49.5638	-120.075	-184.289	-43.3012	-66.9483	-188.694	-47.8733	-84.4875	-184.229	-48.2551	-106.896	-205.056	-45.9499	-51.5361	-204.786	-49.3469	-67.0733	-213.727	-49.6177	-88.8971	-188.205	-25.7842	-25.6524	-191.921	-13.4051	-6.46002	-163.645	-17.7801	-17.6503	
298	2.48333	-143.811	-25.9929	1.32783	-124.674	-30.1177	-11.6084	-112.567	-31.9557	-32.8063	-99.1228	-31.6447	-40.8107	-140.881	-40.5803	-66.6704	-135.935	-47.9599	-85.1849	-128.554	-51.1119	-107.076	-162.383	-41.7108	-75.0138	-162.356	-45.9917	-93.3157	-167.621	-48.7424	-121.247	-182.338	-43.2082	-68.064	-184.011	-46.9136	-88.7099	-187.292	-48.8184	-104.162	-201.977	-45.9033	-54.8476	-209.407	-50.5363	-70.8561	-215.981	-49.782	-83.4873	-184.966	-24.5754	-26.5271	-188.931	-12.9602	-4.83082	-163.439	-15.8125	-16.0879	
299	2.49167	-143.022	-24.8184	0.437238	-128.719	-30.0649	-12.0072	-111.913	-30.0123	-33.5168	-95.9936	-28.1855	-44.1859	-141.928	-40.9159	-67.3898	-137.641	-46.2635	-84.8256	-131.536	-50.6097	-102.849	-167.295	-42.1473	-76.2961	-164.618	-46.0786	-92.7359	-164.075	-47.7354	-115.994	-187.292	-43.2564	-64.0688	-188.938	-47.9184	-86.7806	-185.856	-48.5226	-103.762	-206.04	-46.1494	-50.5825	-205.843	-50.1384	-66.4492	-214.659	-48.447	-89.051	-187.654	-23.0683	-26.4479	-191.186	-12.4507	-5.81357	-164.262	-15.7674	-16.6042	
300	2.5	-145.011	-24.8712	5.33528	-126.314	-28.2016	-16.0164	-114.827	-29.9979	-32.8307	-97.2296	-29.4871	-43.9912	-144.396	-39.4171	-67.6088	-134.38	-45.5911	-83.538	-133.664	-50.4534	-105.278	-168.671	-41.6786	-74.3479	-165.395	-46.4416	-93.7391	-164.177	-48.2643	-116.182	-187.369	-42.9211	-67.5655	-186.17	-47.7358	-83.769	-188.966	-47.9541	-108.579	-206.735	-46.4947	-54.6581	-210.009	-49.9903	-67.471	-214.17	-49.6545	-84.2021	-187.129	-24.7315	-25.1939	-188.02	-12.1412	-6.98345	-166.921	-14.9243	-16.9431	
301	2.50833	-146.528	-25.2701	1.51393	-125.675	-27.3785	-16.2609	-111.585	-29.5971	-30.6531	-99.9569	-29.5021	-41.166	-145.134	-39.0708	-64.1963	-136.667	-45.4428	-83.0313	-129.26	-49.8534	-104.579	-168.338	-40.7165	-70.9924	-166.762	-47.1883	-97.358	-169.058	-47.8155	-117.472	-184.542	-42.9876	-64.8012	-189.724	-46.8024	-85.841	-185.598	-47.2001	-109.278	-207.395	-45.2497	-53.361	-210.623	-49.4934	-69.0025	-214.172	-48.0112	-85.6204	-191.223	-24.9175	-25.5226	-191.591	-12.1102	-6.02072	-164.064	-12.9496	-17.0238	
